<?xml version="1.0" standalone="no"?>
<!DOCTYPE svg PUBLIC "-//W3C//DTD SVG 20010904//EN"
 "http://www.w3.org/TR/2001/REC-SVG-20010904/DTD/svg10.dtd">
<svg version="1.0" xmlns="http://www.w3.org/2000/svg"
 width="512.000000pt" height="512.000000pt" viewBox="0 0 512.000000 512.000000"
 preserveAspectRatio="xMidYMid meet">
<metadata>
Created by potrace 1.14, written by Peter Selinger 2001-2017
</metadata>
<g transform="translate(0.000000,512.000000) scale(0.100000,-0.100000)"
fill="#000000" stroke="none">
<path d="M2286 3944 l-269 -466 12 -69 c36 -221 187 -389 398 -444 67 -17 181
-19 251 -5 l48 11 2 72 c1 91 16 154 57 242 53 115 121 194 240 279 18 13 15
21 -84 192 -57 99 -164 286 -240 416 -75 131 -138 238 -141 238 -3 0 -126
-210 -274 -466z"/>
<path d="M965 3473 c3 -10 124 -221 267 -470 l261 -452 47 -20 c146 -63 310
-58 460 13 124 58 258 222 276 336 5 33 3 36 -39 58 -109 57 -234 209 -276
334 -16 50 -40 170 -41 211 0 4 -216 7 -481 7 -453 0 -481 -1 -474 -17z"/>
<path d="M3054 3462 c-53 -39 -125 -118 -157 -172 -112 -192 -89 -450 57 -615
l42 -48 74 36 c102 50 177 67 290 67 103 0 183 -16 267 -55 38 -17 54 -20 61
-12 15 19 472 814 472 821 0 3 -240 6 -533 6 l-534 0 -39 -28z"/>
<path d="M3221 2614 c-140 -38 -271 -145 -334 -275 -59 -120 -59 -119 16 -167
163 -105 272 -282 292 -476 l7 -66 480 0 c380 0 479 3 475 13 -3 6 -122 215
-265 462 -287 498 -271 477 -397 510 -73 19 -202 18 -274 -1z"/>
<path d="M2040 2454 c-90 -46 -168 -64 -280 -64 -104 0 -183 16 -269 56 -30
13 -55 23 -56 22 -22 -35 -475 -828 -475 -832 0 -3 240 -6 533 -6 597 0 540
-7 631 79 65 61 122 150 147 230 43 133 24 306 -46 426 -33 55 -94 125 -108
123 -7 0 -41 -16 -77 -34z"/>
<path d="M2439 2158 l-36 -9 -7 -77 c-21 -229 -116 -394 -296 -513 l-24 -16
240 -416 c131 -229 241 -416 244 -416 3 0 124 208 270 462 l265 462 -3 55
c-13 208 -185 409 -397 465 -65 17 -199 18 -256 3z"/>
</g>
</svg>
